<?xml version="1.0" encoding="utf-8"?>
<!-- Generator: Adobe Illustrator 20.0.0, SVG Export Plug-In . SVG Version: 6.00 Build 0)  -->
<svg version="1.1" id="圖層_1" xmlns="http://www.w3.org/2000/svg" xmlns:xlink="http://www.w3.org/1999/xlink" x="0px" y="0px"
	 viewBox="0 0 441.8 437.3" style="enable-background:new 0 0 441.8 437.3;" xml:space="preserve">
<style type="text/css">
	.st0{fill:#FFFFFF;}
</style>
<path class="st0" d="M376.1,218.5h17.1c0.8,11,9.7,19.5,20.7,19.5c11.5,0,20.7-9.2,20.7-20.6c0-11.5-9.3-20.9-20.7-20.9
	c-11,0-19.9,8-20.7,19h-17.1c-0.1-18-3.5-35.6-9.5-51.8l19.3-7.8c3.4,6.8,10.4,11.5,18.5,11.5c11.5,0,20.7-9.3,20.7-20.7
	c0-11.5-9.3-20.7-20.7-20.7c-11.5,0-20.7,9.3-20.7,20.8c0,2.3,0.4,4.5,1.1,6.5l-19.2,7.9c-7.3-18.6-18.2-35.4-31.7-49.6l13-13
	c3.6,3.1,8.4,5.1,13.6,5.1c11.5,0,20.7-9.3,20.7-20.7c0-11.5-9.3-20.7-20.7-20.7s-20.7,9.3-20.7,20.7c0,5.2,1.9,9.9,5.1,13.6l-13,13
	c-0.2-0.2-0.3-0.3-0.5-0.5c-13.8-13.8-30.2-25-48.5-32.7l7.2-17.4c2.1,0.7,4.2,1.1,6.5,1.1c11.5,0,20.7-9.3,20.7-20.7
	c0-11.5-9.3-20.7-20.7-20.7c-11.5,0-20.7,9.3-20.7,20.7c0,8.1,4.7,15.1,11.4,18.5L280,75.1c-17.7-7.1-37.1-11-57.3-11
	c-0.3,0-0.1,0-1.1,0V47.6c11-0.5,19.9-9.6,19.9-20.7c0-11.5-9.2-20.7-20.7-20.7c-11.5,0-20.9,9.3-20.9,20.7
	c0,10.8,8.6,19.6,18.6,20.6v16.6c-20,0.5-39.6,5-57.2,12.7L154.5,60c6.8-3.4,11.5-10.4,11.5-18.5c0-11.5-9.3-20.7-20.7-20.7
	c-11.5,0-20.7,9.3-20.7,20.7c0,11.5,9.3,20.7,20.8,20.7c2.3,0,4.5-0.4,6.5-1.1l7,16.9c-16.6,7.6-31.6,18.1-44.3,30.9c-1,1-2,2-2.9,3
	l-13-13c3.1-3.6,5.1-8.4,5.1-13.6c0-11.5-9.3-20.7-20.7-20.7s-20.7,9.3-20.7,20.7c0,11.5,9.3,20.7,20.7,20.7c5.2,0,9.9-1.9,13.6-5.1
	l13.1,13.1c-12.8,14.1-23.1,30.6-30,48.8l-17.8-7.4c0.8-2.2,1.3-4.6,1.3-7.2c0-11.5-9.3-20.7-20.7-20.7c-11.5,0-20.7,9.3-20.7,20.7
	c0,11.5,9.3,20.7,20.7,20.7c7.9,0,14.7-4.4,18.2-10.9l18,7.2c-5.6,15.7-8.7,33.1-8.9,50.1H47.5c-0.8-11-9.7-19-20.7-19
	c-11.5,0-20.7,9.4-20.7,20.9c0,11.5,9.3,20.5,20.7,20.5c11,0,19.9-8.4,20.7-19.4h22.1c0.2,21,4.7,41.4,12.7,59.7l-21.5,9
	c-3.4-6.8-10.4-11.4-18.5-11.4c-11.5,0-20.7,9.3-20.7,20.8c0,11.5,9.3,20.8,20.7,20.8c11.5,0,20.7-9.3,20.7-20.7
	c0-2.3-0.4-4.5-1.1-6.5l21.5-8.9c7.6,16.7,18.2,31.7,31,44.5c0.2,0.2,0.3,0.3,0.5,0.5l-17.4,17.4c-3.6-3.1-8.4-5.1-13.6-5.1
	c-11.5,0-20.7,9.3-20.7,20.7c0,11.5,9.3,20.7,20.7,20.7c11.5,0,20.7-9.3,20.7-20.7c0-5.2-1.9-9.9-5.1-13.6l17.4-17.4
	c13.2,12.6,28.6,22.8,45.5,30l-7.9,19.1c-2.1-0.7-4.2-1.1-6.5-1.1c-11.5,0-20.7,9.3-20.7,20.7c0,11.5,9.3,20.7,20.7,20.7
	c11.5,0,20.7-9.3,20.7-20.7c0-8.1-4.7-15.1-11.4-18.5l7.7-19.1c16.6,6.7,34.3,10.6,53.3,11.1v21.2c-11,0.8-19.1,9.7-19.1,20.7
	c0,11.5,9.4,20.7,20.8,20.7c11.5,0,20.6-9.3,20.6-20.7c0-11-8.4-19.9-19.4-20.7v-21.1c1,0,0.8,0,1.1,0c18.7,0,36.7-3.3,53.2-9.5
	l8.2,19.6c-6.8,3.4-11.4,10.4-11.4,18.5c0,11.5,9.3,20.7,20.8,20.7s20.8-9.3,20.8-20.7c0-11.5-9.3-20.7-20.7-20.7
	c-2.3,0-4.5,0.4-6.5,1.1l-8.1-19.5c17.6-6.9,33.5-16.9,47.2-29.4l16,16c-3.1,3.6-5.1,8.4-5.1,13.6c0,11.5,9.3,20.7,20.7,20.7
	c11.5,0,20.7-9.3,20.7-20.7s-9.3-20.7-20.7-20.7c-5.2,0-9.9,1.9-13.6,5.1l-15.9-15.9c1-1,2-1.9,3-2.9c12.3-12.3,22.6-26.8,30.2-42.8
	l18.6,7.7c-0.7,2.1-1.1,4.2-1.1,6.5c0,11.5,9.3,20.7,20.7,20.7c11.5,0,20.7-9.3,20.7-20.7c0-11.5-9.3-20.7-20.7-20.7
	c-8.1,0-15.1,4.7-18.5,11.4l-18.4-7.9C371.1,261.3,375.9,240.5,376.1,218.5z M353.4,276.1l-31.8-13.3c6.3-13.5,9.9-28.3,10.1-44.3
	h34.4C365.9,239.5,361.4,258.6,353.4,276.1z M289.8,290.2l-63-63l84.3,34.9c-4.7,9.3-10.9,17.8-18.3,25.2
	C291.8,288.2,290.8,289.2,289.8,290.2z M152.9,287.3c-7.8-7.8-14.3-16.9-19.1-26.9l80.2-33.2l-60.6,60.6
	C153.3,287.6,153.1,287.4,152.9,287.3z M233,215.5h-3.6l66-65.7c8.5,9.2,15.3,19.9,19.9,31.8L233,215.5z M316.3,184.3
	c3.4,9.8,5.3,20.3,5.5,31.3h-80.9L316.3,184.3z M225.1,215.5h-0.3l37.1-89.3c11.6,5,22,12.3,30.8,21.1c0.2,0.2,0.3,0.1,0.5,0.3
	L225.1,215.5z M221.6,215.4v-96.9c1,0,0.8,0,1.1,0c12.8,0,25,2.4,36.2,6.9L221.6,215.4z M218.6,215.4L182,127.1
	c11.2-5.1,23.6-8.1,36.6-8.6V215.4z M215.9,215.5h-0.3L150,150.2c0.9-1,1.9-1.9,2.9-2.9c7.7-7.7,16.7-14.4,26.7-19.2L215.9,215.5z
	 M211.4,215.5h-3.6l-78-32c4.2-11.5,10.4-22.1,18.2-31.2L211.4,215.5z M200,215.5h-76c0.1-10,1.8-20.2,4.9-29.5L200,215.5z
	 M207.2,218.5l9.3,4.1l-83.9,34.6c-5.3-11.8-8.3-24.7-8.6-38.7H207.2z M216.1,229.3l-32.6,78.8c-10.3-4.5-19.7-10.7-27.9-18.3
	L216.1,229.3z M218.6,230.4v85.7c-11-0.5-22.5-2.9-32.6-6.9L218.6,230.4z M221.6,230.4l33.5,80.4c-10.1,3.5-21.1,5.4-32.4,5.4
	c-0.3,0-0.1,0-1.1,0V230.4z M224.7,229.3l62.9,62.9c-8.7,7.5-18.6,13.5-29.5,17.6L224.7,229.3z M224.3,222.6l9.3-4.1h88.2
	c-0.2,15-3.6,28.2-9.3,40.5L224.3,222.6z M366.1,215.5h-34.4c-0.1-12-2.3-23.8-6.2-34.8l31.8-13.3
	C362.9,182.4,366,198.5,366.1,215.5z M356.3,165l-31.8,13.2c-5.1-13.1-12.6-25.1-22.1-35.2l24.3-24.3
	C339.4,131.9,349.5,147.6,356.3,165z M324.2,116c0.2,0.2,0.3,0.3,0.5,0.5l-24.3,24.3c-0.2-0.2-0.3-0.3-0.5-0.5
	c-9.7-9.7-21.3-17.6-34.1-23.1l13.2-31.8C296,92.7,311.3,103.1,324.2,116z M222.7,74c18.8,0,36.9,3.6,53.4,10.3L263,116.1
	c-12.4-4.9-26.1-7.6-40.3-7.6c-0.3,0-0.1,0-1.1,0V74.1C222.6,74.1,222.4,74,222.7,74z M218.6,74.1v34.4c-14,0.5-27.8,3.8-40.2,9.3
	l-13.2-31.8C181.6,78.8,199.6,74.6,218.6,74.1z M121.5,116c11.8-11.8,25.7-21.6,41-28.7l13.2,31.8c-11.2,5.4-21.3,12.6-29.9,21.2
	c-1,1-2,2-2.9,3L118.6,119C119.6,118,120.6,117,121.5,116z M116.6,121.2l24.4,24.4c-8.8,10-15.7,21.6-20.4,34.3l-31.8-13.2
	C95.2,149.8,104.7,134.4,116.6,121.2z M87.7,169.3l31.8,13.1c-3.5,10.5-5.5,22.2-5.6,33.2H79.6C79.7,199.5,82.6,183.9,87.7,169.3z
	 M79.6,218.5H114c0.2,15,3.5,29.7,9.3,42.7l-31.8,13C84.1,257.2,79.8,238.5,79.6,218.5z M121.5,318.6
	c-11.9-11.9-21.7-25.8-28.8-41.3l31.8-13.2c5.4,11.2,12.6,21.4,21.3,30.1c0.2,0.2,0.3,0.3,0.5,0.5L122,319.1
	C121.9,319,121.7,318.8,121.5,318.6z M124.2,321.2l24.3-24.3c9.1,8.5,19.6,15.4,31.1,20.4l-13.2,31.8
	C150.7,342.3,136.4,332.8,124.2,321.2z M169.1,350.2l13.1-31.8c11.3,4.5,23.4,7.2,36.4,7.7v34.4
	C201.6,360.1,184.5,356.4,169.1,350.2z M222.7,360.6c-0.3,0-0.1,0-1.1,0v-34.4c1,0,0.8,0,1.1,0c12.7,0,24.9-2.2,36.2-6.2l13.1,31.8
	C256.7,357.5,240,360.6,222.7,360.6z M275,350.8L261.8,319c12.1-4.6,23.2-11.4,32.8-19.8l24.4,24.4
	C306.2,335.2,291.3,344.4,275,350.8z M324.2,318.6c-1,1-2,2-3,2.9l-24.3-24.3c1-1,2-1.9,3-2.9c8.3-8.3,15.2-17.8,20.5-28.4
	l31.8,13.2C345.1,293.8,335.6,307.2,324.2,318.6z"/>
</svg>
